#!OML:ASF H:\Not Pregnant\Project 1\Capture day 1\Session 1\non-pregnant.ASF
:FULLY-SPECIFIED
:DEGREES
1330
root 18.7214 15.763 20.3453 8.5976 14.447 -364.737
lowerback -0.978333 1.34232 3.27775
upperback -5.70007 1.93042 0.920624
thorax -5.27605 0.841729 -0.948708
lowerneck 35.4978 -13.6935 -30.002
upperneck -5.7167 -28.6031 41.9229
head 4.57738 -18.2268 20.5408
rclavicle -1.60581e-014 9.0447e-015
rhumerus -34.025 -5.98989 -82.3273
rradius 37.1026
rwrist 16.3202
rhand -8.84235 -0.13811
rfingers 7.12502
rthumb 17.0982 -29.4057
lclavicle -1.60581e-014 9.0447e-015
lhumerus -49.6067 4.53862 77.4885
lradius 31.8565
lwrist 34.4275
lhand -13.6813 -9.11411
lfingers 7.12502
lthumb 12.4364 20.4959
rfemur -22.3364 -0.695583 35.8768
rtibia 32.3579
rfoot -15.7295 13.5043
rtoes 11.3762
lfemur -33.0055 3.71056 -11.8909
ltibia 65.6356
lfoot -12.5276 -0.123757
ltoes -25.3737
1331
root 18.7612 15.7569 20.4332 8.61835 13.6691 -364.678
lowerback -0.835801 1.48773 3.31386
upperback -5.64616 2.12495 0.821977
thorax -5.2879 0.933876 -1.0807
lowerneck 35.4848 -13.6736 -30.0398
upperneck -5.66353 -28.6162 41.9542
head 4.61602 -18.2396 20.5606
rclavicle 1.04859e-014 -1.35174e-014
rhumerus -33.6502 -5.65615 -82.6697
rradius 37.4631
rwrist 15.9947
rhand -9.00696 -0.170168
rfingers 7.12502
rthumb 16.9397 -29.4514
lclavicle 1.04859e-014 -1.35174e-014
lhumerus -49.6962 4.48397 77.5264
lradius 32.4261
lwrist 35.4234
lhand -14.0168 -9.43933
lfingers 7.12502
lthumb 12.1129 20.19
rfemur -21.8922 -0.171179 35.6989
rtibia 32.4451
rfoot -15.9641 13.61
rtoes 11.5573
lfemur -33.9666 3.20627 -11.9298
ltibia 65.0946
lfoot -12.7535 1.51036
ltoes -24.3603
1332
root 18.801 15.7513 20.5214 8.65112 12.8799 -364.616
lowerback -0.703869 1.63329 3.34834
upperback -5.5987 2.31952 0.724083
thorax -5.29971 1.02615 -1.21126
lowerneck 35.4682 -13.6505 -30.0814
upperneck -5.61183 -28.6256 41.9838
head 4.65338 -18.25 20.5808
rclavicle 3.35076e-014 4.96962e-015
rhumerus -33.2885 -5.29806 -83.0061
rradius 37.8014
rwrist 15.7
rhand -9.14212 -0.188615
rfingers 7.12502
rthumb 16.8096 -29.481
lclavicle 3.35076e-014 4.96962e-015
lhumerus -49.7769 4.44266 77.5548
lradius 33.004
lwrist 36.4025
lhand -14.3113 -9.66522
lfingers 7.12502
lthumb 11.8289 19.9807
rfemur -21.4551 0.332391 35.5165
rtibia 32.5208
rfoot -16.2032 13.7459
rtoes 11.6718
lfemur -34.8808 2.67147 -11.9454
ltibia 64.4105
lfoot -12.9697 2.9759
ltoes -23.3576
1333
root 18.8398 15.7467 20.6095 8.69337 12.0682 -364.566
lowerback -0.568425 1.78214 3.3815
upperback -5.56052 2.51935 0.633326
thorax -5.3226 1.12104 -1.33465
lowerneck 35.4426 -13.6271 -30.1206
upperneck -5.56062 -28.6307 42.0061
head 4.68772 -18.2564 20.5966
rclavicle -6.94628e-014 -1.47101e-014
rhumerus -32.9464 -4.91688 -83.3358
rradius 38.1263
rwrist 15.4463
rhand -9.24596 -0.197677
rfingers 7.12502
rthumb 16.7097 -29.4985
lclavicle -6.94628e-014 -1.47101e-014
lhumerus -49.8355 4.41867 77.5686
lradius 33.5613
lwrist 37.3317
lhand -14.5585 -9.80269
lfingers 7.12502
lthumb 11.5906 19.8568
rfemur -21.0133 0.857666 35.3466
rtibia 32.5572
rfoot -16.4227 13.8827
rtoes 11.6986
lfemur -35.7448 2.12794 -11.9111
ltibia 63.5812
lfoot -13.186 4.22533
ltoes -22.3907
1334
root 18.878 15.7441 20.6977 8.74261 11.238 -364.542
lowerback -0.440887 1.93341 3.4326
upperback -5.52442 2.72318 0.552807
thorax -5.34192 1.21743 -1.45784
lowerneck 35.3964 -13.6093 -30.149
upperneck -5.51179 -28.6318 42.0182
head 4.71773 -18.257 20.6024
rclavicle 1.78099e-014 -1.03368e-014
rhumerus -32.6114 -4.51104 -83.6604
rradius 38.4333
rwrist 15.2357
rhand -9.31706 -0.19921
rfingers 7.12502
rthumb 16.6412 -29.5058
lclavicle 1.78099e-014 -1.03368e-014
lhumerus -49.8721 4.40359 77.5779
lradius 34.0978
lwrist 38.1896
lhand -14.7645 -9.90079
lfingers 7.12502
lthumb 11.3919 19.7698
rfemur -20.5498 1.39619 35.2017
rtibia 32.5273
rfoot -16.6186 14.0287
rtoes 11.6239
lfemur -36.5525 1.57865 -11.8088
ltibia 62.6068
lfoot -13.3952 5.22147
ltoes -21.4591
1335
root 18.9163 15.7444 20.7869 8.79594 10.3997 -364.54
lowerback -0.324662 2.08386 3.51051
upperback -5.49597 2.92684 0.479221
thorax -5.36119 1.31261 -1.58893
lowerneck 35.3506 -13.5872 -30.1768
upperneck -5.45859 -28.6264 42.0171
head 4.74259 -18.2526 20.6034
rclavicle -2.30839e-014 3.97569e-015
rhumerus -32.3025 -4.07864 -83.9786
rradius 38.7177
rwrist 15.0704
rhand -9.37686 -0.180949
rfingers 7.12502
rthumb 16.5836 -29.4924
lclavicle -2.30839e-014 3.97569e-015
lhumerus -49.8925 4.40125 77.5765
lradius 34.5796
lwrist 38.9461
lhand -14.9253 -9.99894
lfingers 7.12502
lthumb 11.2368 19.6801
rfemur -20.0489 1.91235 35.0737
rtibia 32.4168
rfoot -16.7883 14.2158
rtoes 11.4991
lfemur -37.2859 1.01099 -11.6453
ltibia 61.4857
lfoot -13.5987 5.94288
ltoes -20.6296
1336
root 18.9535 15.7467 20.8761 8.85048 9.54865 -364.57
lowerback -0.210544 2.23412 3.61173
upperback -5.4651 3.13147 0.417626
thorax -5.3752 1.40764 -1.72085
lowerneck 35.2924 -13.5694 -30.2018
upperneck -5.41626 -28.6201 42.0158
head 4.76491 -18.2463 20.6013
rclavicle -1.65302e-014 -5.1684e-015
rhumerus -31.9941 -3.62402 -84.2922
rradius 38.9767
rwrist 14.9485
rhand -9.42096 -0.153483
rfingers 7.12502
rthumb 16.5412 -29.4685
lclavicle -1.65302e-014 -5.1684e-015
lhumerus -49.8794 4.4085 77.5727
lradius 35.0122
lwrist 39.5967
lhand -15.0532 -10.1085
lfingers 7.12502
lthumb 11.1135 19.5773
rfemur -19.5124 2.45305 34.9751
rtibia 32.2202
rfoot -16.9068 14.4039
rtoes 11.328
lfemur -37.955 0.443707 -11.4043
ltibia 60.2293
lfoot -13.7795 6.37262
ltoes -19.9883
